<?xml version="1.0" encoding="UTF-8" standalone="no"?>
<!DOCTYPE svg PUBLIC "-//W3C//DTD SVG 1.1//EN"
 "http://www.w3.org/Graphics/SVG/1.1/DTD/svg11.dtd">
<!-- Generated by graphviz version 12.2.1 (20241206.2353)
 -->
<!-- Title: DepGraph Pages: 1 -->
<svg width="650pt" height="441pt"
 viewBox="0.00 0.00 649.80 440.80" xmlns="http://www.w3.org/2000/svg" xmlns:xlink="http://www.w3.org/1999/xlink">
<g id="graph0" class="graph" transform="scale(1 1) rotate(0) translate(14.4 426.4)">
<title>DepGraph</title>
<polygon fill="white" stroke="none" points="-14,14 -14,-426 635,-426 635,14 -14,14"/>
<!-- github.com/codemityio/gotpl -->
<g id="node1" class="node">
<title>github.com/codemityio/gotpl</title>
<polygon fill="#fcfcfc" stroke="#949494" points="448,-412 222,-412 222,-416 210,-416 210,-376 448,-376 448,-412"/>
<polyline fill="none" stroke="#949494" points="210,-412 222,-412"/>
<text text-anchor="middle" x="329" y="-389" font-family="Courier New" font-size="14.00">github.com/codemityio/gotpl</text>
</g>
<!-- github.com/codemityio/gotpl/internal/app -->
<g id="node2" class="node">
<title>github.com/codemityio/gotpl/internal/app</title>
<polygon fill="#fcfcfc" stroke="#949494" points="321,-318 61,-318 61,-322 49,-322 49,-282 321,-282 321,-318"/>
<polyline fill="none" stroke="#949494" points="49,-318 61,-318"/>
<text text-anchor="middle" x="185" y="-295" font-family="Courier New" font-size="14.00">github.com/codemityio/gotpl/app</text>
</g>
<!-- github.com/codemityio/gotpl&#45;&gt;github.com/codemityio/gotpl/internal/app -->
<g id="edge1" class="edge">
<title>github.com/codemityio/gotpl&#45;&gt;github.com/codemityio/gotpl/internal/app</title>
<path fill="none" stroke="#a8a8a8" d="M265,-376C265,-376 265,-326 265,-326"/>
<polygon fill="#a8a8a8" stroke="#a8a8a8" points="267,-326 265,-320 263,-326 267,-326"/>
</g>
<!-- github.com/urfave/cli/v2 -->
<g id="node3" class="node">
<title>github.com/urfave/cli/v2</title>
<polygon fill="#d4d4d4" stroke="#a6a6a6" points="436,-224 234,-224 234,-228 222,-228 222,-188 436,-188 436,-224"/>
<polyline fill="none" stroke="#a6a6a6" points="222,-224 234,-224"/>
<text text-anchor="middle" x="329" y="-201" font-family="Courier New" font-size="14.00">github.com/urfave/cli/v2</text>
</g>
<!-- github.com/codemityio/gotpl&#45;&gt;github.com/urfave/cli/v2 -->
<g id="edge2" class="edge">
<title>github.com/codemityio/gotpl&#45;&gt;github.com/urfave/cli/v2</title>
<path fill="none" stroke="#a8a8a8" d="M378,-376C378,-376 378,-232 378,-232"/>
<polygon fill="#a8a8a8" stroke="#a8a8a8" points="380,-232 378,-226 376,-232 380,-232"/>
</g>
<!-- github.com/codemityio/gotpl/internal/app&#45;&gt;github.com/urfave/cli/v2 -->
<g id="edge3" class="edge">
<title>github.com/codemityio/gotpl/internal/app&#45;&gt;github.com/urfave/cli/v2</title>
<path fill="none" stroke="#a8a8a8" d="M271,-282C271,-282 271,-232 271,-232"/>
<polygon fill="#a8a8a8" stroke="#a8a8a8" points="273,-232 271,-226 269,-232 273,-232"/>
</g>
<!-- github.com/cpuguy83/go&#45;md2man/v2/md2man -->
<g id="node4" class="node">
<title>github.com/cpuguy83/go&#45;md2man/v2/md2man</title>
<polygon fill="#d4d4d4" stroke="#a6a6a6" points="338,-130 12,-130 12,-134 0,-134 0,-94 338,-94 338,-130"/>
<polyline fill="none" stroke="#a6a6a6" points="0,-130 12,-130"/>
<text text-anchor="middle" x="169" y="-107" font-family="Courier New" font-size="14.00">github.com/cpuguy83/go&#45;md2man/v2/md2man</text>
</g>
<!-- github.com/urfave/cli/v2&#45;&gt;github.com/cpuguy83/go&#45;md2man/v2/md2man -->
<g id="edge5" class="edge">
<title>github.com/urfave/cli/v2&#45;&gt;github.com/cpuguy83/go&#45;md2man/v2/md2man</title>
<path fill="none" stroke="#a8a8a8" d="M280,-188C280,-188 280,-138 280,-138"/>
<polygon fill="#a8a8a8" stroke="#a8a8a8" points="282,-138 280,-132 278,-138 282,-138"/>
</g>
<!-- github.com/xrash/smetrics -->
<g id="node6" class="node">
<title>github.com/xrash/smetrics</title>
<polygon fill="#d4d4d4" stroke="#a6a6a6" points="621,-36 411,-36 411,-40 399,-40 399,0 621,0 621,-36"/>
<polyline fill="none" stroke="#a6a6a6" points="399,-36 411,-36"/>
<text text-anchor="middle" x="510" y="-13" font-family="Courier New" font-size="14.00">github.com/xrash/smetrics</text>
</g>
<!-- github.com/urfave/cli/v2&#45;&gt;github.com/xrash/smetrics -->
<g id="edge6" class="edge">
<title>github.com/urfave/cli/v2&#45;&gt;github.com/xrash/smetrics</title>
<path fill="none" stroke="#a8a8a8" d="M417,-188C417,-188 417,-44 417,-44"/>
<polygon fill="#a8a8a8" stroke="#a8a8a8" points="419,-44 417,-38 415,-44 419,-44"/>
</g>
<!-- github.com/russross/blackfriday/v2 -->
<g id="node5" class="node">
<title>github.com/russross/blackfriday/v2</title>
<polygon fill="#d4d4d4" stroke="#a6a6a6" points="298,-36 14,-36 14,-40 2,-40 2,0 298,0 298,-36"/>
<polyline fill="none" stroke="#a6a6a6" points="2,-36 14,-36"/>
<text text-anchor="middle" x="150" y="-13" font-family="Courier New" font-size="14.00">github.com/russross/blackfriday/v2</text>
</g>
<!-- github.com/cpuguy83/go&#45;md2man/v2/md2man&#45;&gt;github.com/russross/blackfriday/v2 -->
<g id="edge4" class="edge">
<title>github.com/cpuguy83/go&#45;md2man/v2/md2man&#45;&gt;github.com/russross/blackfriday/v2</title>
<path fill="none" stroke="#a8a8a8" d="M150,-94C150,-94 150,-44 150,-44"/>
<polygon fill="#a8a8a8" stroke="#a8a8a8" points="152,-44 150,-38 148,-44 152,-44"/>
</g>
</g>
</svg>
